<svg width="110" height="110" viewBox="0 0 110 110" fill="none" xmlns="http://www.w3.org/2000/svg">
<circle cx="54.3887" cy="8.48528" r="5.5" transform="rotate(45 54.3887 8.48528)" stroke="#F74670"/>
<circle cx="24.022" cy="38.9291" r="6" transform="rotate(45 24.022 38.9291)" fill="#792E40"/>
<circle cx="38.8521" cy="24.0615" r="5.5" transform="rotate(45 38.8521 24.0615)" stroke="#F74670"/>
<circle cx="8.48535" cy="54.5053" r="5.5" transform="rotate(45 8.48535 54.5053)" stroke="#F74670"/>
<circle cx="85.5405" cy="39.5585" r="5.5" transform="rotate(45 85.5405 39.5585)" stroke="#F74670"/>
<circle cx="55.1743" cy="70.0024" r="6" transform="rotate(45 55.1743 70.0024)" fill="#792E40"/>
<circle cx="70.0044" cy="55.1342" r="5.5" transform="rotate(45 70.0044 55.1342)" stroke="#F74670"/>
<circle cx="39.6377" cy="85.5785" r="5.5" transform="rotate(45 39.6377 85.5785)" stroke="#F74670"/>
<circle cx="69.9648" cy="24.0214" r="5.5" transform="rotate(45 69.9648 24.0214)" fill="#792E40" stroke="#792E40"/>
<circle cx="39.5981" cy="54.4662" r="5.5" transform="rotate(45 39.5981 54.4662)" stroke="#F74670"/>
<circle cx="54.4287" cy="39.5981" r="5.5" transform="rotate(45 54.4287 39.5981)" stroke="#F74670"/>
<circle cx="24.061" cy="70.0424" r="5.5" transform="rotate(45 24.061 70.0424)" stroke="#F74670"/>
<circle cx="101.117" cy="55.0951" r="5.5" transform="rotate(45 101.117 55.0951)" stroke="#F74670"/>
<circle cx="70.75" cy="85.5395" r="5.5" transform="rotate(45 70.75 85.5395)" stroke="#F74670"/>
<circle cx="85.5806" cy="70.6708" r="5.5" transform="rotate(45 85.5806 70.6708)" stroke="#F74670"/>
<circle cx="55.2134" cy="101.115" r="6" transform="rotate(45 55.2134 101.115)" fill="#602735"/>
</svg>
