<svg width="85" height="85" viewBox="0 0 85 85" fill="none" xmlns="http://www.w3.org/2000/svg">
<g opacity="0.7">
<circle cx="42.1799" cy="6.58059" r="4.15318" transform="rotate(45 42.1799 6.58059)" stroke="#F74670"/>
<circle cx="18.6296" cy="30.1909" r="4.65318" transform="rotate(45 18.6296 30.1909)" fill="#792E40"/>
<circle cx="30.1309" cy="18.6607" r="4.15318" transform="rotate(45 30.1309 18.6607)" stroke="#F74670"/>
<circle cx="6.58057" cy="42.2705" r="4.15318" transform="rotate(45 6.58057 42.2705)" stroke="#F74670"/>
<circle cx="66.3394" cy="30.6787" r="4.15318" transform="rotate(45 66.3394 30.6787)" stroke="#F74670"/>
<circle cx="42.7893" cy="54.2891" r="4.65318" transform="rotate(45 42.7893 54.2891)" fill="#792E40"/>
<circle cx="54.2905" cy="42.7583" r="4.15318" transform="rotate(45 54.2905 42.7583)" stroke="#F74670"/>
<circle cx="30.7402" cy="66.3687" r="4.15318" transform="rotate(45 30.7402 66.3687)" stroke="#F74670"/>
<circle cx="54.2598" cy="18.6294" r="4.15318" transform="rotate(45 54.2598 18.6294)" fill="#792E40" stroke="#792E40"/>
<circle cx="30.7095" cy="42.2403" r="4.15318" transform="rotate(45 30.7095 42.2403)" stroke="#F74670"/>
<circle cx="42.2112" cy="30.7095" r="4.15318" transform="rotate(45 42.2112 30.7095)" stroke="#F74670"/>
<circle cx="18.6599" cy="54.3199" r="4.15318" transform="rotate(45 18.6599 54.3199)" stroke="#F74670"/>
<circle cx="78.4194" cy="42.7281" r="4.15318" transform="rotate(45 78.4194 42.7281)" stroke="#F74670"/>
<circle cx="54.8687" cy="66.3384" r="4.15318" transform="rotate(45 54.8687 66.3384)" stroke="#F74670"/>
<circle cx="66.3704" cy="54.8072" r="4.15318" transform="rotate(45 66.3704 54.8072)" stroke="#F74670"/>
<circle cx="42.8196" cy="78.418" r="4.65318" transform="rotate(45 42.8196 78.418)" fill="#602735"/>
</g>
</svg>
