<svg width="52" height="78" viewBox="0 0 52 78" fill="none" xmlns="http://www.w3.org/2000/svg">
<path d="M40.1758 0L29 23H34.5385L47 0H40.1758Z" fill="#428BC1"/>
<path d="M34.6036 0L24 23H29.3018L40 0H34.6036Z" fill="#E8E8E8"/>
<path d="M29.6667 0L19 23H24.3333L35 0H29.6667Z" fill="#ED4C5C"/>
<path d="M25.8997 77.9996C39.9313 77.9996 51.3062 66.6247 51.3062 52.5931C51.3062 38.5614 39.9313 27.1865 25.8997 27.1865C11.8681 27.1865 0.493164 38.5614 0.493164 52.5931C0.493164 66.6247 11.8681 77.9996 25.8997 77.9996Z" fill="#FFCE31"/>
<path d="M13.1964 20.1567C12.5798 20.1567 12.0864 20.6501 12.0864 21.2667V31.6267C12.0864 32.2433 12.5798 32.7367 13.1964 32.7367H38.603C39.2196 32.7367 39.7129 32.2433 39.7129 31.6267V21.2667C39.7129 20.6501 39.2196 20.1567 38.603 20.1567H13.1964ZM37.493 28.2967C37.493 28.9134 36.9996 29.4067 36.383 29.4067H15.5397C14.9231 29.4067 14.4297 28.9134 14.4297 28.2967V23.6101C14.4297 22.9934 14.9231 22.5001 15.5397 22.5001H36.383C36.9996 22.5001 37.493 22.9934 37.493 23.6101V28.2967Z" fill="#FFCE31"/>
<path opacity="0.5" d="M4.07 55.5533C4.07 41.74 14.6766 30.5167 28.2432 29.5301C27.6265 29.5301 26.8865 29.4067 26.2699 29.4067C13.3199 29.4067 2.83667 39.89 2.83667 52.9633C2.83667 56.7866 3.82333 60.4866 5.42666 63.6932C4.56333 61.1032 4.07 58.3899 4.07 55.5533Z" fill="#89664C"/>
<path opacity="0.33" d="M35.6432 72.2032C47.1131 64.5566 50.5664 49.6333 43.9065 38.04L45.0165 39.52C52.1697 50.1266 49.2098 64.5566 38.4798 71.8332C35.2732 74.0532 31.6965 75.2865 28.1199 75.6565C30.8332 74.9165 33.2998 73.8065 35.6432 72.2032Z" fill="white"/>
<path d="M16.1538 23H22L10.2033 0H3L16.1538 23Z" fill="#ED4C5C"/>
<path d="M21.3669 23H27L15.7337 0H10L21.3669 23Z" fill="#E8E8E8"/>
<path opacity="0.5" d="M26.9735 5L24 10.3617L31.0088 23H34.9381L36 21.2128L26.9735 5Z" fill="#3E4347"/>
<path d="M27.3158 23H33L21.6316 0H15L27.3158 23Z" fill="#428BC1"/>
<path opacity="0.5" d="M19.4866 44.9468V46.1801C20.7199 46.1801 21.8299 45.9335 22.9399 45.4401V43.7135C21.9532 44.4535 20.8432 44.8235 19.4866 44.9468ZM27.6265 36.9302H28.7365V63.57H27.6265V36.9302ZM32.3132 64.68V68.1333H19.4866V69.3667H33.4232V64.68H32.3132Z" fill="#89664C"/>
<path opacity="0.33" d="M28.7367 63.5692H32.19V64.6792H28.7367V63.5692ZM24.1734 36.9293H27.6267V35.8193H22.9401C22.9401 38.4093 20.8434 40.506 18.2534 40.506V45.0693C18.6234 45.0693 18.9934 45.0693 19.3634 44.946V41.4926C22.0767 41.616 24.1734 39.5193 24.1734 36.9293ZM24.1734 64.6792V44.946C23.8034 45.1926 23.4334 45.316 23.0634 45.5626V63.5692H18.3768V68.1325H19.4867V64.6792H24.1734Z" fill="white"/>
</svg>
