<svg width="51" height="76" viewBox="0 0 51 76" fill="none" xmlns="http://www.w3.org/2000/svg">
<g id="&#240;&#159;&#166;&#134; emoji &#34;second place medal&#34;">
<g id="Group">
<path id="Vector" d="M25.6546 75.3004C39.5536 75.3004 50.8209 64.033 50.8209 50.1341C50.8209 36.2351 39.5536 24.9678 25.6546 24.9678C11.7556 24.9678 0.488281 36.2351 0.488281 50.1341C0.488281 64.033 11.7556 75.3004 25.6546 75.3004Z" fill="#B2C1C0"/>
<g id="Group 44">
<path id="Vector_2" d="M43.1758 0L32 23H37.5385L50 0H43.1758Z" fill="#428BC1"/>
<path id="Vector_3" d="M37.6036 0L27 23H32.3018L43 0H37.6036Z" fill="#E8E8E8"/>
<path id="Vector_4" d="M32.6667 0L22 23H27.3333L38 0H32.6667Z" fill="#ED4C5C"/>
<path id="Vector_5" d="M13.0714 18.0039C12.4606 18.0039 11.9719 18.4926 11.9719 19.1034V29.3654C11.9719 29.9762 12.4606 30.4649 13.0714 30.4649H38.2377C38.8486 30.4649 39.3372 29.9762 39.3372 29.3654V19.1034C39.3372 18.4926 38.8486 18.0039 38.2377 18.0039H13.0714ZM37.1382 26.0669C37.1382 26.6777 36.6496 27.1664 36.0387 27.1664H15.3926C14.7818 27.1664 14.2931 26.6777 14.2931 26.0669V21.4246C14.2931 20.8137 14.7818 20.3251 15.3926 20.3251H36.0387C36.6496 20.3251 37.1382 20.8137 37.1382 21.4246V26.0669Z" fill="#B2C1C0"/>
<path id="Vector_6" d="M19.1538 23H25L13.2033 0H6L19.1538 23Z" fill="#ED4C5C"/>
<path id="Vector_7" d="M24.3669 23H30L18.7337 0H13L24.3669 23Z" fill="#E8E8E8"/>
<path id="Vector_8" opacity="0.5" d="M29.9735 5L27 10.3617L34.0088 23H37.9381L39 21.2128L29.9735 5Z" fill="#3E4347"/>
<path id="Vector_9" d="M29.3158 23H35L23.6316 0H17L29.3158 23Z" fill="#428BC1"/>
</g>
</g>
<path id="Vector_10" opacity="0.5" d="M4.03148 53.0658C4.03148 39.3832 14.5378 28.266 27.9761 27.2887C27.3653 27.2887 26.6323 27.1665 26.0215 27.1665C13.194 27.1665 2.80981 37.5507 2.80981 50.5003C2.80981 54.2875 3.78715 57.9525 5.37531 61.1288C4.52014 58.5633 4.03148 55.8756 4.03148 53.0658Z" fill="#3E4347"/>
<path id="Vector_11" opacity="0.33" d="M35.3062 69.5579C46.6677 61.9836 50.0883 47.2014 43.4913 35.7178C43.8578 36.2064 44.2243 36.6951 44.5908 37.3059C51.6765 47.8123 48.7445 62.1057 38.116 69.3136C34.9397 71.5126 31.3968 72.7342 27.854 73.1007C30.5417 72.2456 32.985 71.1461 35.3062 69.5579Z" fill="white"/>
<path id="Vector_12" opacity="0.5" d="M25.0439 38.039C22.4785 38.039 20.4016 40.1159 20.4016 42.5592H17.1031C17.1031 42.9257 16.981 43.2922 16.981 43.6587H21.6233C21.6233 41.0932 23.7001 39.0164 26.2656 39.0164C27.2429 39.0164 28.0981 39.3829 28.8311 39.8715C27.9759 38.8942 26.6321 38.039 25.0439 38.039ZM34.2064 65.5265H17.1031V66.7482H35.4281V62.1059H34.2064V65.5265ZM25.0439 51.8439C22.4785 51.8439 20.4016 53.9207 20.4016 56.4862V61.1285H21.5011V57.7079C21.5011 55.1424 23.578 53.0655 26.1434 53.0655C31.1523 53.0655 35.3059 48.9119 35.3059 43.903C35.3059 41.0932 34.0843 38.5277 32.0074 36.8174C33.3513 38.4055 34.2064 40.4824 34.2064 42.6814C34.2064 47.6902 30.1749 51.8439 25.0439 51.8439Z" fill="#3E4347"/>
<path id="Vector_13" opacity="0.33" d="M21.6234 61.006H34.2066V62.1055H21.6234V61.006ZM26.2657 48.4229C28.8312 48.4229 30.9081 46.346 30.9081 43.7805C30.9081 42.1924 30.1751 40.8485 28.9534 39.9934C29.4421 40.7264 29.8086 41.5815 29.8086 42.5589C29.8086 45.1244 27.7317 47.2012 25.1662 47.2012C20.1574 47.2012 16.0038 51.3549 16.0038 56.3637V65.5262H17.1033V57.4632C17.1033 52.4544 21.1348 48.4229 26.2657 48.4229ZM26.2657 34.6181C28.4647 34.6181 30.5416 35.4732 32.1297 36.8171C30.4194 34.8624 27.9761 33.5186 25.0441 33.5186C20.0353 33.5186 15.8816 37.6722 15.8816 42.681H17.1033C17.7141 38.1609 21.5013 34.6181 26.2657 34.6181Z" fill="white"/>
</g>
</svg>
