<svg width="51" height="78" viewBox="0 0 51 78" fill="none" xmlns="http://www.w3.org/2000/svg">
<g id="&#240;&#159;&#166;&#134; emoji &#34;third place medal&#34;">
<g id="Group">
<path id="Vector" d="M25.6282 77.3004C39.5272 77.3004 50.7945 66.033 50.7945 52.1341C50.7945 38.2351 39.5272 26.9678 25.6282 26.9678C11.7293 26.9678 0.461914 38.2351 0.461914 52.1341C0.461914 66.033 11.7293 77.3004 25.6282 77.3004Z" fill="#CF9A63"/>
<path id="Vector_2" d="M40.1495 0L28.9736 23H34.5121L46.9736 0H40.1495Z" fill="#428BC1"/>
<path id="Vector_3" d="M34.5772 0L23.9736 23H29.2754L39.9736 0H34.5772Z" fill="#E8E8E8"/>
<path id="Vector_4" d="M29.6403 0L18.9736 23H24.307L34.9736 0H29.6403Z" fill="#ED4C5C"/>
<path id="Vector_5" d="M13.0451 20.0039C12.4342 20.0039 11.9456 20.4926 11.9456 21.1034V31.3654C11.9456 31.9762 12.4342 32.4649 13.0451 32.4649H38.2114C38.8222 32.4649 39.3109 31.9762 39.3109 31.3654V21.1034C39.3109 20.4926 38.8222 20.0039 38.2114 20.0039H13.0451ZM37.1119 28.0669C37.1119 28.6777 36.6232 29.1664 36.0124 29.1664H15.3662C14.7554 29.1664 14.2667 28.6777 14.2667 28.0669V23.4246C14.2667 22.8137 14.7554 22.3251 15.3662 22.3251H36.0124C36.6232 22.3251 37.1119 22.8137 37.1119 23.4246V28.0669Z" fill="#CF9A63"/>
</g>
<g id="Group 43">
<path id="Vector_6" d="M16.1275 23H21.9736L10.1769 0H2.97363L16.1275 23Z" fill="#ED4C5C"/>
<path id="Vector_7" opacity="0.5" d="M26.973 5L23.9995 10.3617L31.0084 23H34.9376L35.9995 21.2128L26.973 5Z" fill="#3E4347"/>
<path id="Vector_8" d="M21.3405 23H26.9736L15.7074 0H9.97363L21.3405 23Z" fill="#E8E8E8"/>
<path id="Vector_9" d="M27.2894 23H32.9736L21.6052 0H14.9736L27.2894 23Z" fill="#428BC1"/>
</g>
<path id="Vector_10" opacity="0.5" d="M4.00511 55.0658C4.00511 41.3832 14.5114 30.266 27.9498 29.2887C27.3389 29.2887 26.6059 29.1665 25.9951 29.1665C13.1676 29.1665 2.78345 39.5507 2.78345 52.5003C2.78345 56.2875 3.76078 59.9525 5.34894 63.1288C4.49378 60.5633 4.00511 57.8756 4.00511 55.0658Z" fill="#3E4347"/>
<path id="Vector_11" opacity="0.33" d="M35.2798 71.5584C46.6413 63.9841 50.0619 49.2019 43.4649 37.7183L44.5644 39.1843C51.6501 49.6906 48.7181 63.9841 38.0896 71.1919C34.9133 73.3909 31.3705 74.6125 27.8276 74.979C30.5153 74.246 32.9586 73.1465 35.2798 71.5584Z" fill="white"/>
<path id="Vector_12" opacity="0.5" d="M25.0176 40.0391C22.4521 40.0391 20.3753 42.116 20.3753 44.5593H17.0768C17.0768 44.9258 16.9546 45.2923 16.9546 45.6588H21.5969C21.5969 43.0933 23.6737 41.0165 26.2392 41.0165C27.2166 41.0165 28.0717 41.383 28.8047 41.8716C27.9496 40.8943 26.6057 40.0391 25.0176 40.0391ZM32.2254 52.6223C34.1801 50.912 35.4017 48.4686 35.4017 45.781C35.4017 42.9711 34.1801 40.4056 32.1032 38.6953C33.4471 40.2835 34.3022 42.3603 34.3022 44.5593C34.3022 47.247 33.0806 49.8125 31.1259 51.4006C33.0806 53.111 34.3022 55.5543 34.3022 58.242C34.3022 63.2508 30.1486 67.4044 25.1397 67.4044C22.9408 67.4044 20.8639 66.5493 19.2758 65.2054C20.9861 67.1601 23.4294 68.5039 26.3614 68.5039C31.3702 68.5039 35.5239 64.3503 35.5239 59.3415C35.4017 56.776 34.1801 54.3326 32.2254 52.6223Z" fill="#3E4347"/>
<path id="Vector_13" opacity="0.33" d="M26.2394 36.6181C28.4384 36.6181 30.5152 37.4732 32.1034 38.8171C30.393 36.8624 27.9497 35.5186 25.0177 35.5186C20.0089 35.5186 15.8552 39.6722 15.8552 44.681H17.0769C17.6877 40.1609 21.4749 36.6181 26.2394 36.6181ZM30.7595 45.7805C30.7595 44.1924 30.0265 42.8485 28.8049 41.9934C29.2935 42.7264 29.66 43.5815 29.66 44.5589C29.66 47.1244 27.5832 49.2012 25.0177 49.2012V53.8435C25.3842 53.8435 25.7507 53.9657 26.1172 53.9657V50.4229C28.6827 50.4229 30.7595 48.346 30.7595 45.7805ZM26.2394 64.1055C28.8049 64.1055 30.8817 62.0287 30.8817 59.4632C30.8817 57.875 30.1487 56.5312 28.927 55.676C29.4157 56.409 29.7822 57.2642 29.7822 58.2415C29.7822 60.807 27.7054 62.8839 25.1399 62.8839C24.1625 62.8839 23.3074 62.5174 22.5744 62.0287C23.3074 63.3725 24.6512 64.1055 26.2394 64.1055ZM20.6197 59.5854C20.4976 59.2189 20.4976 58.8524 20.4976 58.4859H15.8552C15.8552 61.2957 17.0769 63.8612 19.1537 65.5715C17.8099 63.9834 16.9547 61.9065 16.9547 59.7075L20.6197 59.5854Z" fill="white"/>
</g>
</svg>
